<svg xmlns="http://www.w3.org/2000/svg" width="316" height="382" viewBox="0 0 316 382" version="1.1"><path d="M 109.500 2.684 C 75.878 5.603, 41.676 16.715, 11.320 34.580 L 1.585 40.309 5.043 42.905 C 16.023 51.147, 24.879 61.745, 31.016 73.987 C 38.706 89.328, 42.143 102.097, 48.531 139.068 C 55.424 178.966, 59.189 193.171, 67.571 210.900 C 76.781 230.380, 90.290 246.836, 107.585 259.641 C 140.377 283.920, 190.685 293.573, 245.444 286.094 L 251.387 285.282 256.108 289.698 C 262.464 295.643, 270.002 306.756, 275.754 318.662 C 280.046 327.546, 280.498 329.155, 280.475 335.493 C 280.453 341.757, 279.897 343.738, 275.225 354.183 C 269.572 366.824, 268.902 370.902, 271.975 373.975 C 274.621 376.621, 277.830 377.307, 285.318 376.831 C 293.010 376.341, 296.934 373.834, 300.034 367.429 C 309.719 347.424, 293.606 305.948, 248.199 234 C 216.914 184.428, 185.105 140.652, 163 116.750 C 159.058 112.488, 156.090 109, 156.403 109 C 156.717 109, 160.156 110.906, 164.046 113.236 C 188.402 127.824, 225.177 170.845, 270.108 237.307 L 284.850 259.115 289.020 250.307 C 322.923 178.702, 318.487 110.494, 276.870 63.500 C 242.057 24.189, 186.185 1.401, 126.500 2.169 C 119.350 2.261, 111.700 2.493, 109.500 2.684" stroke="none" fill="#fffcfc" fill-rule="evenodd"/><path d="" stroke="none" fill="#fcfcfc" fill-rule="evenodd"/></svg>